<svg xmlns="http://www.w3.org/2000/svg" xmlns:xlink="http://www.w3.org/1999/xlink" width="500" zoomAndPan="magnify" viewBox="0 0 375 374.999991" height="500" preserveAspectRatio="xMidYMid meet" version="1.0"><defs><clipPath id="809dae2447"><path d="M 75.714844 71 L 299.214844 71 L 299.214844 305 L 75.714844 305 Z M 75.714844 71 " clip-rule="nonzero"/></clipPath></defs><g clip-path="url(#809dae2447)"><path fill="#d79a2b" d="M 99.25 245.042969 L 145.628906 285.035156 C 133.015625 294.0625 119.496094 304.9375 119.496094 304.9375 L 75.714844 263.65625 C 75.714844 263.65625 82.0625 257.683594 99.25 245.042969 Z M 269.722656 230.988281 C 258.660156 240.726562 249.199219 247.988281 235.75 250.296875 C 214.328125 253.976562 192.878906 248.722656 186.96875 244.773438 C 176.667969 237.898438 187.3125 242.167969 218.214844 240.449219 C 249.125 238.722656 243.113281 222.382812 243.113281 222.382812 C 236.25 221.523438 228.085938 220.570312 195.902344 219.808594 C 184.125 219.527344 161.558594 217.226562 150.832031 219.378906 C 138.644531 221.824219 127.265625 232.65625 110.164062 244.238281 L 152.175781 280.464844 C 158.472656 276.230469 163.777344 273.15625 165.9375 273.15625 C 178.8125 273.15625 211.980469 276.332031 235.476562 273.15625 C 282.605469 250.339844 299.214844 222.417969 299.214844 222.417969 C 299.214844 222.417969 286.464844 211.207031 269.722656 230.988281 Z M 166.78125 71.34375 C 166.78125 71.34375 168.898438 88.046875 175.878906 98.457031 C 182.859375 108.886719 188.703125 109.375 194.839844 111.085938 C 194.839844 111.085938 191.222656 93.464844 178.398438 82.558594 C 178.398438 82.558594 193.007812 89.460938 197.917969 104.777344 C 198.945312 101.164062 199.472656 96.007812 197.851562 89.308594 C 195.226562 78.464844 173.550781 70.339844 166.78125 71.34375 Z M 124.75 110.992188 C 124.75 110.992188 132.917969 140.476562 148.179688 157.40625 C 163.429688 174.332031 174.082031 173.691406 185.566406 175.148438 C 185.566406 175.148438 174.472656 144.40625 148.570312 128.117188 C 148.570312 128.117188 176.640625 136.746094 189.449219 163.019531 C 190.367188 156.246094 189.980469 146.824219 185.316406 135.199219 C 177.785156 116.375 136.644531 107.417969 124.75 110.992188 Z M 207.582031 83.921875 C 207.273438 88.304688 207.289062 110.328125 198.585938 137.464844 C 185.90625 176.980469 191.773438 209.203125 191.773438 209.203125 L 209.367188 209.339844 C 204.453125 189.683594 200.566406 178.175781 207.28125 136.660156 C 215.019531 88.773438 207.582031 83.921875 207.582031 83.921875 Z M 213.886719 152.492188 C 225.0625 155.347656 234.691406 159.835938 255.003906 149.726562 C 275.316406 139.617188 293.636719 115.277344 293.636719 115.277344 C 283.902344 107.625 242.511719 100.875 228.671875 115.566406 C 220.128906 124.632812 216.324219 133.222656 214.710938 139.832031 C 236.152344 120.171875 265.320312 122.441406 265.320312 122.441406 C 235.363281 128.070312 213.886719 152.492188 213.886719 152.492188 Z M 213.886719 152.492188 " fill-opacity="1" fill-rule="nonzero"/></g></svg>